<mxfile host="app.diagrams.net" agent="Mozilla/5.0 (Windows NT 10.0; Win64; x64) AppleWebKit/537.36 (KHTML, like Gecko) Chrome/127.0.0.0 Safari/537.36" version="24.7.7">
  <diagram name="Page-1" id="8ce9d11a-91a2-4d17-14d8-a56ed91bf033">
    <mxGraphModel dx="2787" dy="1718" grid="1" gridSize="10" guides="1" tooltips="1" connect="1" arrows="1" fold="1" page="1" pageScale="1" pageWidth="1100" pageHeight="850" background="none" math="0" shadow="0">
      <root>
        <mxCell id="0" />
        <mxCell id="1" parent="0" />
        <mxCell id="OLBpBpzMfsDTpR5o14G0-11" style="edgeStyle=orthogonalEdgeStyle;rounded=0;orthogonalLoop=1;jettySize=auto;html=1;exitX=0.5;exitY=1;exitDx=0;exitDy=0;" edge="1" parent="1" source="OLBpBpzMfsDTpR5o14G0-1" target="OLBpBpzMfsDTpR5o14G0-3">
          <mxGeometry relative="1" as="geometry" />
        </mxCell>
        <mxCell id="OLBpBpzMfsDTpR5o14G0-13" style="edgeStyle=orthogonalEdgeStyle;rounded=0;orthogonalLoop=1;jettySize=auto;html=1;exitX=1;exitY=0.5;exitDx=0;exitDy=0;entryX=0;entryY=0.5;entryDx=0;entryDy=0;" edge="1" parent="1" source="OLBpBpzMfsDTpR5o14G0-1" target="OLBpBpzMfsDTpR5o14G0-12">
          <mxGeometry relative="1" as="geometry" />
        </mxCell>
        <mxCell id="OLBpBpzMfsDTpR5o14G0-18" style="edgeStyle=orthogonalEdgeStyle;rounded=0;orthogonalLoop=1;jettySize=auto;html=1;exitX=1;exitY=0;exitDx=0;exitDy=0;entryX=0.5;entryY=0;entryDx=0;entryDy=0;" edge="1" parent="1" source="OLBpBpzMfsDTpR5o14G0-1" target="OLBpBpzMfsDTpR5o14G0-14">
          <mxGeometry relative="1" as="geometry">
            <Array as="points">
              <mxPoint x="600" y="280" />
              <mxPoint x="940" y="280" />
            </Array>
          </mxGeometry>
        </mxCell>
        <mxCell id="OLBpBpzMfsDTpR5o14G0-1" value="메인(index.html)" style="rounded=0;whiteSpace=wrap;html=1;fillColor=#dae8fc;strokeColor=#6c8ebf;" vertex="1" parent="1">
          <mxGeometry x="480" y="360" width="120" height="60" as="geometry" />
        </mxCell>
        <mxCell id="OLBpBpzMfsDTpR5o14G0-10" style="edgeStyle=orthogonalEdgeStyle;rounded=0;orthogonalLoop=1;jettySize=auto;html=1;exitX=1;exitY=0.5;exitDx=0;exitDy=0;entryX=0;entryY=0.5;entryDx=0;entryDy=0;" edge="1" parent="1" source="OLBpBpzMfsDTpR5o14G0-2" target="OLBpBpzMfsDTpR5o14G0-6">
          <mxGeometry relative="1" as="geometry" />
        </mxCell>
        <mxCell id="OLBpBpzMfsDTpR5o14G0-27" style="edgeStyle=orthogonalEdgeStyle;rounded=0;orthogonalLoop=1;jettySize=auto;html=1;exitX=0;exitY=0.5;exitDx=0;exitDy=0;entryX=1;entryY=0.5;entryDx=0;entryDy=0;" edge="1" parent="1" source="OLBpBpzMfsDTpR5o14G0-2" target="OLBpBpzMfsDTpR5o14G0-5">
          <mxGeometry relative="1" as="geometry" />
        </mxCell>
        <mxCell id="OLBpBpzMfsDTpR5o14G0-2" value="Header" style="rounded=1;whiteSpace=wrap;html=1;fillColor=#dae8fc;strokeColor=#6c8ebf;" vertex="1" parent="1">
          <mxGeometry x="480" y="80" width="120" height="60" as="geometry" />
        </mxCell>
        <mxCell id="OLBpBpzMfsDTpR5o14G0-3" value="Footer" style="rounded=1;whiteSpace=wrap;html=1;fillColor=#dae8fc;strokeColor=#6c8ebf;" vertex="1" parent="1">
          <mxGeometry x="480" y="600" width="120" height="60" as="geometry" />
        </mxCell>
        <mxCell id="OLBpBpzMfsDTpR5o14G0-4" value="" style="endArrow=classic;html=1;rounded=0;exitX=0.5;exitY=0;exitDx=0;exitDy=0;entryX=0.5;entryY=1;entryDx=0;entryDy=0;" edge="1" parent="1" source="OLBpBpzMfsDTpR5o14G0-1" target="OLBpBpzMfsDTpR5o14G0-2">
          <mxGeometry width="50" height="50" relative="1" as="geometry">
            <mxPoint x="520" y="380" as="sourcePoint" />
            <mxPoint x="570" y="330" as="targetPoint" />
          </mxGeometry>
        </mxCell>
        <mxCell id="OLBpBpzMfsDTpR5o14G0-26" style="edgeStyle=orthogonalEdgeStyle;rounded=0;orthogonalLoop=1;jettySize=auto;html=1;exitX=0;exitY=0.5;exitDx=0;exitDy=0;entryX=1;entryY=0.5;entryDx=0;entryDy=0;" edge="1" parent="1" source="OLBpBpzMfsDTpR5o14G0-5" target="OLBpBpzMfsDTpR5o14G0-25">
          <mxGeometry relative="1" as="geometry" />
        </mxCell>
        <mxCell id="OLBpBpzMfsDTpR5o14G0-5" value="Login" style="rounded=1;whiteSpace=wrap;html=1;fillColor=#dae8fc;strokeColor=#6c8ebf;" vertex="1" parent="1">
          <mxGeometry x="280" y="80" width="120" height="60" as="geometry" />
        </mxCell>
        <mxCell id="OLBpBpzMfsDTpR5o14G0-24" style="edgeStyle=orthogonalEdgeStyle;rounded=0;orthogonalLoop=1;jettySize=auto;html=1;exitX=1;exitY=0.5;exitDx=0;exitDy=0;entryX=0.75;entryY=0;entryDx=0;entryDy=0;" edge="1" parent="1" source="OLBpBpzMfsDTpR5o14G0-6" target="OLBpBpzMfsDTpR5o14G0-1">
          <mxGeometry relative="1" as="geometry" />
        </mxCell>
        <mxCell id="OLBpBpzMfsDTpR5o14G0-77" style="edgeStyle=orthogonalEdgeStyle;rounded=0;orthogonalLoop=1;jettySize=auto;html=1;exitX=0.5;exitY=0;exitDx=0;exitDy=0;entryX=1;entryY=0.5;entryDx=0;entryDy=0;" edge="1" parent="1" source="OLBpBpzMfsDTpR5o14G0-6" target="OLBpBpzMfsDTpR5o14G0-76">
          <mxGeometry relative="1" as="geometry" />
        </mxCell>
        <mxCell id="OLBpBpzMfsDTpR5o14G0-92" style="edgeStyle=orthogonalEdgeStyle;rounded=0;orthogonalLoop=1;jettySize=auto;html=1;exitX=0.75;exitY=0;exitDx=0;exitDy=0;entryX=0;entryY=0.5;entryDx=0;entryDy=0;" edge="1" parent="1" source="OLBpBpzMfsDTpR5o14G0-6" target="OLBpBpzMfsDTpR5o14G0-91">
          <mxGeometry relative="1" as="geometry" />
        </mxCell>
        <mxCell id="OLBpBpzMfsDTpR5o14G0-6" value="Register" style="rounded=1;whiteSpace=wrap;html=1;fillColor=#dae8fc;strokeColor=#6c8ebf;" vertex="1" parent="1">
          <mxGeometry x="680" y="80" width="120" height="60" as="geometry" />
        </mxCell>
        <mxCell id="OLBpBpzMfsDTpR5o14G0-15" style="edgeStyle=orthogonalEdgeStyle;rounded=0;orthogonalLoop=1;jettySize=auto;html=1;exitX=1;exitY=0.5;exitDx=0;exitDy=0;entryX=0;entryY=0.5;entryDx=0;entryDy=0;" edge="1" parent="1" source="OLBpBpzMfsDTpR5o14G0-12" target="OLBpBpzMfsDTpR5o14G0-14">
          <mxGeometry relative="1" as="geometry" />
        </mxCell>
        <mxCell id="OLBpBpzMfsDTpR5o14G0-74" style="edgeStyle=orthogonalEdgeStyle;rounded=0;orthogonalLoop=1;jettySize=auto;html=1;exitX=0.5;exitY=1;exitDx=0;exitDy=0;entryX=1;entryY=0.5;entryDx=0;entryDy=0;" edge="1" parent="1" source="OLBpBpzMfsDTpR5o14G0-12" target="OLBpBpzMfsDTpR5o14G0-70">
          <mxGeometry relative="1" as="geometry" />
        </mxCell>
        <mxCell id="OLBpBpzMfsDTpR5o14G0-101" style="edgeStyle=orthogonalEdgeStyle;rounded=0;orthogonalLoop=1;jettySize=auto;html=1;exitX=0.5;exitY=1;exitDx=0;exitDy=0;entryX=0.5;entryY=1;entryDx=0;entryDy=0;" edge="1" parent="1" source="OLBpBpzMfsDTpR5o14G0-12" target="OLBpBpzMfsDTpR5o14G0-98">
          <mxGeometry relative="1" as="geometry" />
        </mxCell>
        <mxCell id="OLBpBpzMfsDTpR5o14G0-102" style="edgeStyle=orthogonalEdgeStyle;rounded=0;orthogonalLoop=1;jettySize=auto;html=1;exitX=0.5;exitY=1;exitDx=0;exitDy=0;entryX=0.5;entryY=1;entryDx=0;entryDy=0;" edge="1" parent="1" source="OLBpBpzMfsDTpR5o14G0-12" target="OLBpBpzMfsDTpR5o14G0-70">
          <mxGeometry relative="1" as="geometry" />
        </mxCell>
        <mxCell id="OLBpBpzMfsDTpR5o14G0-12" value="Search List" style="rounded=1;whiteSpace=wrap;html=1;fillColor=#dae8fc;strokeColor=#6c8ebf;" vertex="1" parent="1">
          <mxGeometry x="680" y="360" width="120" height="60" as="geometry" />
        </mxCell>
        <mxCell id="OLBpBpzMfsDTpR5o14G0-75" style="edgeStyle=orthogonalEdgeStyle;rounded=0;orthogonalLoop=1;jettySize=auto;html=1;exitX=0.5;exitY=1;exitDx=0;exitDy=0;entryX=1;entryY=0.5;entryDx=0;entryDy=0;" edge="1" parent="1" source="OLBpBpzMfsDTpR5o14G0-14" target="OLBpBpzMfsDTpR5o14G0-70">
          <mxGeometry relative="1" as="geometry" />
        </mxCell>
        <mxCell id="OLBpBpzMfsDTpR5o14G0-83" style="edgeStyle=orthogonalEdgeStyle;rounded=0;orthogonalLoop=1;jettySize=auto;html=1;exitX=0.25;exitY=1;exitDx=0;exitDy=0;entryX=0.5;entryY=0;entryDx=0;entryDy=0;" edge="1" parent="1" source="OLBpBpzMfsDTpR5o14G0-14" target="OLBpBpzMfsDTpR5o14G0-82">
          <mxGeometry relative="1" as="geometry">
            <Array as="points">
              <mxPoint x="910" y="550" />
              <mxPoint x="-60" y="550" />
            </Array>
          </mxGeometry>
        </mxCell>
        <mxCell id="OLBpBpzMfsDTpR5o14G0-87" style="edgeStyle=orthogonalEdgeStyle;rounded=0;orthogonalLoop=1;jettySize=auto;html=1;exitX=0.75;exitY=0;exitDx=0;exitDy=0;entryX=0.5;entryY=0;entryDx=0;entryDy=0;" edge="1" parent="1" source="OLBpBpzMfsDTpR5o14G0-14" target="OLBpBpzMfsDTpR5o14G0-59">
          <mxGeometry relative="1" as="geometry" />
        </mxCell>
        <mxCell id="OLBpBpzMfsDTpR5o14G0-89" style="edgeStyle=orthogonalEdgeStyle;rounded=0;orthogonalLoop=1;jettySize=auto;html=1;exitX=0.75;exitY=1;exitDx=0;exitDy=0;entryX=0.5;entryY=0;entryDx=0;entryDy=0;" edge="1" parent="1" source="OLBpBpzMfsDTpR5o14G0-14" target="OLBpBpzMfsDTpR5o14G0-85">
          <mxGeometry relative="1" as="geometry" />
        </mxCell>
        <mxCell id="OLBpBpzMfsDTpR5o14G0-14" value="Portfolio" style="rounded=1;whiteSpace=wrap;html=1;fillColor=#dae8fc;strokeColor=#6c8ebf;" vertex="1" parent="1">
          <mxGeometry x="880" y="360" width="120" height="60" as="geometry" />
        </mxCell>
        <mxCell id="OLBpBpzMfsDTpR5o14G0-73" style="edgeStyle=orthogonalEdgeStyle;rounded=0;orthogonalLoop=1;jettySize=auto;html=1;exitX=0.5;exitY=1;exitDx=0;exitDy=0;entryX=0.5;entryY=0;entryDx=0;entryDy=0;" edge="1" parent="1" source="OLBpBpzMfsDTpR5o14G0-16" target="OLBpBpzMfsDTpR5o14G0-70">
          <mxGeometry relative="1" as="geometry" />
        </mxCell>
        <mxCell id="OLBpBpzMfsDTpR5o14G0-94" style="edgeStyle=orthogonalEdgeStyle;rounded=0;orthogonalLoop=1;jettySize=auto;html=1;exitX=1;exitY=0.5;exitDx=0;exitDy=0;entryX=0.5;entryY=1;entryDx=0;entryDy=0;" edge="1" parent="1" source="OLBpBpzMfsDTpR5o14G0-16" target="OLBpBpzMfsDTpR5o14G0-91">
          <mxGeometry relative="1" as="geometry" />
        </mxCell>
        <mxCell id="OLBpBpzMfsDTpR5o14G0-99" style="edgeStyle=orthogonalEdgeStyle;rounded=0;orthogonalLoop=1;jettySize=auto;html=1;exitX=0.25;exitY=1;exitDx=0;exitDy=0;entryX=0.5;entryY=0;entryDx=0;entryDy=0;" edge="1" parent="1" source="OLBpBpzMfsDTpR5o14G0-16" target="OLBpBpzMfsDTpR5o14G0-98">
          <mxGeometry relative="1" as="geometry" />
        </mxCell>
        <mxCell id="OLBpBpzMfsDTpR5o14G0-16" value="Seller Portfolio&lt;br&gt;Manager" style="rounded=1;whiteSpace=wrap;html=1;fillColor=#dae8fc;strokeColor=#6c8ebf;" vertex="1" parent="1">
          <mxGeometry x="280" y="240" width="120" height="60" as="geometry" />
        </mxCell>
        <mxCell id="OLBpBpzMfsDTpR5o14G0-30" style="edgeStyle=orthogonalEdgeStyle;rounded=0;orthogonalLoop=1;jettySize=auto;html=1;exitX=0;exitY=0.5;exitDx=0;exitDy=0;entryX=1;entryY=0.5;entryDx=0;entryDy=0;" edge="1" parent="1" source="OLBpBpzMfsDTpR5o14G0-25" target="OLBpBpzMfsDTpR5o14G0-29">
          <mxGeometry relative="1" as="geometry" />
        </mxCell>
        <mxCell id="OLBpBpzMfsDTpR5o14G0-43" value="True" style="edgeLabel;html=1;align=center;verticalAlign=middle;resizable=0;points=[];" vertex="1" connectable="0" parent="OLBpBpzMfsDTpR5o14G0-30">
          <mxGeometry x="-0.5" y="-3" relative="1" as="geometry">
            <mxPoint as="offset" />
          </mxGeometry>
        </mxCell>
        <mxCell id="OLBpBpzMfsDTpR5o14G0-36" style="edgeStyle=orthogonalEdgeStyle;rounded=0;orthogonalLoop=1;jettySize=auto;html=1;exitX=0.5;exitY=1;exitDx=0;exitDy=0;entryX=0.5;entryY=0;entryDx=0;entryDy=0;" edge="1" parent="1" source="OLBpBpzMfsDTpR5o14G0-25" target="OLBpBpzMfsDTpR5o14G0-35">
          <mxGeometry relative="1" as="geometry" />
        </mxCell>
        <mxCell id="OLBpBpzMfsDTpR5o14G0-37" value="False" style="edgeLabel;html=1;align=center;verticalAlign=middle;resizable=0;points=[];" vertex="1" connectable="0" parent="OLBpBpzMfsDTpR5o14G0-36">
          <mxGeometry x="-0.32" relative="1" as="geometry">
            <mxPoint as="offset" />
          </mxGeometry>
        </mxCell>
        <mxCell id="OLBpBpzMfsDTpR5o14G0-25" value="isAdmin?" style="rhombus;whiteSpace=wrap;html=1;" vertex="1" parent="1">
          <mxGeometry x="80" y="80" width="120" height="60" as="geometry" />
        </mxCell>
        <mxCell id="OLBpBpzMfsDTpR5o14G0-55" style="edgeStyle=orthogonalEdgeStyle;rounded=0;orthogonalLoop=1;jettySize=auto;html=1;exitX=0;exitY=0.5;exitDx=0;exitDy=0;entryX=1;entryY=0.5;entryDx=0;entryDy=0;" edge="1" parent="1" source="OLBpBpzMfsDTpR5o14G0-29" target="OLBpBpzMfsDTpR5o14G0-51">
          <mxGeometry relative="1" as="geometry" />
        </mxCell>
        <mxCell id="OLBpBpzMfsDTpR5o14G0-56" style="edgeStyle=orthogonalEdgeStyle;rounded=0;orthogonalLoop=1;jettySize=auto;html=1;exitX=0;exitY=0.5;exitDx=0;exitDy=0;entryX=1;entryY=0.5;entryDx=0;entryDy=0;" edge="1" parent="1" source="OLBpBpzMfsDTpR5o14G0-29" target="OLBpBpzMfsDTpR5o14G0-53">
          <mxGeometry relative="1" as="geometry" />
        </mxCell>
        <mxCell id="OLBpBpzMfsDTpR5o14G0-57" style="edgeStyle=orthogonalEdgeStyle;rounded=0;orthogonalLoop=1;jettySize=auto;html=1;exitX=0;exitY=0.5;exitDx=0;exitDy=0;entryX=1;entryY=0.5;entryDx=0;entryDy=0;" edge="1" parent="1" source="OLBpBpzMfsDTpR5o14G0-29" target="OLBpBpzMfsDTpR5o14G0-52">
          <mxGeometry relative="1" as="geometry" />
        </mxCell>
        <mxCell id="OLBpBpzMfsDTpR5o14G0-58" style="edgeStyle=orthogonalEdgeStyle;rounded=0;orthogonalLoop=1;jettySize=auto;html=1;exitX=0;exitY=0.5;exitDx=0;exitDy=0;entryX=1;entryY=0.5;entryDx=0;entryDy=0;" edge="1" parent="1" source="OLBpBpzMfsDTpR5o14G0-29" target="OLBpBpzMfsDTpR5o14G0-54">
          <mxGeometry relative="1" as="geometry" />
        </mxCell>
        <mxCell id="OLBpBpzMfsDTpR5o14G0-97" style="edgeStyle=orthogonalEdgeStyle;rounded=0;orthogonalLoop=1;jettySize=auto;html=1;exitX=0;exitY=0.5;exitDx=0;exitDy=0;entryX=1;entryY=0.5;entryDx=0;entryDy=0;" edge="1" parent="1" source="OLBpBpzMfsDTpR5o14G0-29" target="OLBpBpzMfsDTpR5o14G0-93">
          <mxGeometry relative="1" as="geometry" />
        </mxCell>
        <mxCell id="OLBpBpzMfsDTpR5o14G0-29" value="AdminPage" style="rounded=1;whiteSpace=wrap;html=1;fillColor=#f8cecc;strokeColor=#b85450;" vertex="1" parent="1">
          <mxGeometry x="-120" y="80" width="120" height="60" as="geometry" />
        </mxCell>
        <mxCell id="OLBpBpzMfsDTpR5o14G0-46" style="edgeStyle=orthogonalEdgeStyle;rounded=0;orthogonalLoop=1;jettySize=auto;html=1;exitX=0.5;exitY=1;exitDx=0;exitDy=0;entryX=0.5;entryY=0;entryDx=0;entryDy=0;" edge="1" parent="1" source="OLBpBpzMfsDTpR5o14G0-35" target="OLBpBpzMfsDTpR5o14G0-44">
          <mxGeometry relative="1" as="geometry" />
        </mxCell>
        <mxCell id="OLBpBpzMfsDTpR5o14G0-47" value="False" style="edgeLabel;html=1;align=center;verticalAlign=middle;resizable=0;points=[];" vertex="1" connectable="0" parent="OLBpBpzMfsDTpR5o14G0-46">
          <mxGeometry x="-0.28" y="3" relative="1" as="geometry">
            <mxPoint as="offset" />
          </mxGeometry>
        </mxCell>
        <mxCell id="OLBpBpzMfsDTpR5o14G0-48" style="edgeStyle=orthogonalEdgeStyle;rounded=0;orthogonalLoop=1;jettySize=auto;html=1;exitX=1;exitY=0.5;exitDx=0;exitDy=0;entryX=0;entryY=0.5;entryDx=0;entryDy=0;" edge="1" parent="1" source="OLBpBpzMfsDTpR5o14G0-35" target="OLBpBpzMfsDTpR5o14G0-16">
          <mxGeometry relative="1" as="geometry" />
        </mxCell>
        <mxCell id="OLBpBpzMfsDTpR5o14G0-49" value="True" style="edgeLabel;html=1;align=center;verticalAlign=middle;resizable=0;points=[];" vertex="1" connectable="0" parent="OLBpBpzMfsDTpR5o14G0-48">
          <mxGeometry x="0.025" y="-1" relative="1" as="geometry">
            <mxPoint as="offset" />
          </mxGeometry>
        </mxCell>
        <mxCell id="OLBpBpzMfsDTpR5o14G0-35" value="isSeller?" style="rhombus;whiteSpace=wrap;html=1;" vertex="1" parent="1">
          <mxGeometry x="80" y="240" width="120" height="60" as="geometry" />
        </mxCell>
        <mxCell id="OLBpBpzMfsDTpR5o14G0-78" style="edgeStyle=orthogonalEdgeStyle;rounded=0;orthogonalLoop=1;jettySize=auto;html=1;exitX=0;exitY=0.5;exitDx=0;exitDy=0;entryX=0;entryY=0.5;entryDx=0;entryDy=0;" edge="1" parent="1" source="OLBpBpzMfsDTpR5o14G0-44" target="OLBpBpzMfsDTpR5o14G0-76">
          <mxGeometry relative="1" as="geometry" />
        </mxCell>
        <mxCell id="OLBpBpzMfsDTpR5o14G0-44" value="MyPage" style="rounded=1;whiteSpace=wrap;html=1;fillColor=#dae8fc;strokeColor=#6c8ebf;" vertex="1" parent="1">
          <mxGeometry x="80" y="360" width="120" height="60" as="geometry" />
        </mxCell>
        <mxCell id="OLBpBpzMfsDTpR5o14G0-79" style="edgeStyle=orthogonalEdgeStyle;rounded=0;orthogonalLoop=1;jettySize=auto;html=1;exitX=0;exitY=0.5;exitDx=0;exitDy=0;entryX=1;entryY=0.5;entryDx=0;entryDy=0;" edge="1" parent="1" source="OLBpBpzMfsDTpR5o14G0-51" target="OLBpBpzMfsDTpR5o14G0-59">
          <mxGeometry relative="1" as="geometry" />
        </mxCell>
        <mxCell id="OLBpBpzMfsDTpR5o14G0-51" value="Report Review&lt;div&gt;List&lt;/div&gt;" style="rounded=1;whiteSpace=wrap;html=1;fillColor=#f8cecc;strokeColor=#b85450;" vertex="1" parent="1">
          <mxGeometry x="-320" y="80" width="120" height="60" as="geometry" />
        </mxCell>
        <mxCell id="OLBpBpzMfsDTpR5o14G0-66" style="edgeStyle=orthogonalEdgeStyle;rounded=0;orthogonalLoop=1;jettySize=auto;html=1;exitX=0;exitY=0.5;exitDx=0;exitDy=0;entryX=1;entryY=0.5;entryDx=0;entryDy=0;" edge="1" parent="1" source="OLBpBpzMfsDTpR5o14G0-52" target="OLBpBpzMfsDTpR5o14G0-59">
          <mxGeometry relative="1" as="geometry" />
        </mxCell>
        <mxCell id="OLBpBpzMfsDTpR5o14G0-52" value="Report Porfolio&lt;div&gt;List&lt;/div&gt;" style="rounded=1;whiteSpace=wrap;html=1;fillColor=#f8cecc;strokeColor=#b85450;" vertex="1" parent="1">
          <mxGeometry x="-320" y="260" width="120" height="60" as="geometry" />
        </mxCell>
        <mxCell id="OLBpBpzMfsDTpR5o14G0-84" style="edgeStyle=orthogonalEdgeStyle;rounded=0;orthogonalLoop=1;jettySize=auto;html=1;exitX=0;exitY=0.5;exitDx=0;exitDy=0;entryX=0.5;entryY=0;entryDx=0;entryDy=0;" edge="1" parent="1" source="OLBpBpzMfsDTpR5o14G0-53" target="OLBpBpzMfsDTpR5o14G0-82">
          <mxGeometry relative="1" as="geometry">
            <Array as="points">
              <mxPoint x="-340" y="210" />
              <mxPoint x="-340" y="250" />
              <mxPoint x="-60" y="250" />
            </Array>
          </mxGeometry>
        </mxCell>
        <mxCell id="OLBpBpzMfsDTpR5o14G0-53" value="User Review&amp;nbsp;&lt;span style=&quot;background-color: initial;&quot;&gt;List&lt;/span&gt;" style="rounded=1;whiteSpace=wrap;html=1;fillColor=#f8cecc;strokeColor=#b85450;" vertex="1" parent="1">
          <mxGeometry x="-320" y="170" width="120" height="60" as="geometry" />
        </mxCell>
        <mxCell id="OLBpBpzMfsDTpR5o14G0-81" style="edgeStyle=orthogonalEdgeStyle;rounded=0;orthogonalLoop=1;jettySize=auto;html=1;exitX=0;exitY=0.5;exitDx=0;exitDy=0;entryX=0;entryY=0.5;entryDx=0;entryDy=0;" edge="1" parent="1" source="OLBpBpzMfsDTpR5o14G0-54" target="OLBpBpzMfsDTpR5o14G0-70">
          <mxGeometry relative="1" as="geometry">
            <Array as="points">
              <mxPoint x="-360" y="370" />
              <mxPoint x="-360" y="490" />
            </Array>
          </mxGeometry>
        </mxCell>
        <mxCell id="OLBpBpzMfsDTpR5o14G0-54" value="User Porfolio&lt;div&gt;List&lt;/div&gt;" style="rounded=1;whiteSpace=wrap;html=1;fillColor=#f8cecc;strokeColor=#b85450;" vertex="1" parent="1">
          <mxGeometry x="-320" y="340" width="120" height="60" as="geometry" />
        </mxCell>
        <mxCell id="OLBpBpzMfsDTpR5o14G0-59" value="Report" style="shape=datastore;whiteSpace=wrap;html=1;" vertex="1" parent="1">
          <mxGeometry x="-520" y="170" width="120" height="60" as="geometry" />
        </mxCell>
        <mxCell id="OLBpBpzMfsDTpR5o14G0-70" value="Portfolio" style="shape=datastore;whiteSpace=wrap;html=1;" vertex="1" parent="1">
          <mxGeometry x="280" y="460" width="120" height="60" as="geometry" />
        </mxCell>
        <mxCell id="OLBpBpzMfsDTpR5o14G0-76" value="Member" style="shape=datastore;whiteSpace=wrap;html=1;" vertex="1" parent="1">
          <mxGeometry x="80" y="-10" width="120" height="60" as="geometry" />
        </mxCell>
        <mxCell id="OLBpBpzMfsDTpR5o14G0-82" value="Review" style="shape=datastore;whiteSpace=wrap;html=1;" vertex="1" parent="1">
          <mxGeometry x="-120" y="600" width="120" height="60" as="geometry" />
        </mxCell>
        <mxCell id="OLBpBpzMfsDTpR5o14G0-85" value="&lt;span style=&quot;color: rgb(31, 31, 31); font-family: &amp;quot;Pretendard Variable&amp;quot;, Pretendard, &amp;quot;Noto Sans SC&amp;quot;, -apple-system, BlinkMacSystemFont, system-ui, Roboto, &amp;quot;Helvetica Neue&amp;quot;, &amp;quot;Segoe UI&amp;quot;, &amp;quot;Apple SD Gothic Neo&amp;quot;, &amp;quot;Noto Sans KR&amp;quot;, &amp;quot;Malgun Gothic&amp;quot;, &amp;quot;Apple Color Emoji&amp;quot;, &amp;quot;Segoe UI Emoji&amp;quot;, &amp;quot;Segoe UI Symbol&amp;quot;, sans-serif; text-align: start; background-color: rgb(254, 254, 254);&quot;&gt;&lt;font style=&quot;font-size: 12px;&quot;&gt;Quote&lt;/font&gt;&lt;/span&gt;" style="shape=datastore;whiteSpace=wrap;html=1;" vertex="1" parent="1">
          <mxGeometry x="880" y="600" width="120" height="60" as="geometry" />
        </mxCell>
        <mxCell id="OLBpBpzMfsDTpR5o14G0-91" value="Image" style="shape=datastore;whiteSpace=wrap;html=1;" vertex="1" parent="1">
          <mxGeometry x="880" y="-10" width="120" height="60" as="geometry" />
        </mxCell>
        <mxCell id="OLBpBpzMfsDTpR5o14G0-96" style="edgeStyle=orthogonalEdgeStyle;rounded=0;orthogonalLoop=1;jettySize=auto;html=1;exitX=0;exitY=0.5;exitDx=0;exitDy=0;entryX=1;entryY=0.5;entryDx=0;entryDy=0;" edge="1" parent="1" source="OLBpBpzMfsDTpR5o14G0-93" target="OLBpBpzMfsDTpR5o14G0-95">
          <mxGeometry relative="1" as="geometry" />
        </mxCell>
        <mxCell id="OLBpBpzMfsDTpR5o14G0-93" value="Seller Apply" style="rounded=1;whiteSpace=wrap;html=1;fillColor=#f8cecc;strokeColor=#b85450;" vertex="1" parent="1">
          <mxGeometry x="-320" y="-10" width="120" height="60" as="geometry" />
        </mxCell>
        <mxCell id="OLBpBpzMfsDTpR5o14G0-95" value="Apply" style="shape=datastore;whiteSpace=wrap;html=1;" vertex="1" parent="1">
          <mxGeometry x="-520" y="-10" width="120" height="60" as="geometry" />
        </mxCell>
        <mxCell id="OLBpBpzMfsDTpR5o14G0-98" value="Tag" style="shape=datastore;whiteSpace=wrap;html=1;" vertex="1" parent="1">
          <mxGeometry x="80" y="600" width="120" height="60" as="geometry" />
        </mxCell>
      </root>
    </mxGraphModel>
  </diagram>
</mxfile>
